grf
version=1
nRows=6
nColumns=37
inDegrees=no
endheader
time	ground_force_1_vx	ground_force_1_vy	ground_force_1_vz	ground_force_1_px	ground_force_1_py	ground_force_1_pz	ground_moment_1_mx	ground_moment_1_my	ground_moment_1_mz	ground_force_2_vx	ground_force_2_vy	ground_force_2_vz	ground_force_2_px	ground_force_2_py	ground_force_2_pz	ground_moment_2_mx	ground_moment_2_my	ground_moment_2_mz	ground_force_3_vx	ground_force_3_vy	ground_force_3_vz	ground_force_3_px	ground_force_3_py	ground_force_3_pz	ground_moment_3_mx	ground_moment_3_my	ground_moment_3_mz	ground_force_4_vx	ground_force_4_vy	ground_force_4_vz	ground_force_4_px	ground_force_4_py	ground_force_4_pz	ground_moment_4_mx	ground_moment_4_my	ground_moment_4_mz
      3.13000000	      0.00000000	     -0.00000000	      0.00000000	      0.00000000	      0.00000000	      0.00000000	      0.00000000	      0.00000000	      0.00000000	      6.31959772	     33.78042603	   -340.11230469	   -340.73259924	  -1082.13267389	      0.00000000	      0.00000000	     -0.00000000	   9373.16283817	    -10.52676106	    -43.64652542	   -395.29531860	   -350.15036197	   -625.04906619	      0.00000000	      0.00000000	     -0.00000000	 -12250.32509788	    -35.30654765	     16.26903080	     75.10375977	    607.49129576	   -566.78821986	      0.00000000	      0.00000000	      0.00000000	     89.85152391
      3.14000000	      0.00000000	     -0.00000000	      0.00000000	      0.00000000	      0.00000000	      0.00000000	      0.00000000	      0.00000000	      0.00000000	      6.03649521	     32.97850037	   -340.11230469	   -340.55257770	  -1082.56605556	      0.00000000	     -0.00000000	      0.00000000	   9294.40648456	    -10.73440174	    -44.01377012	   -396.52090454	   -350.46398655	   -624.86628846	      0.00000000	      0.00000000	     -0.00000000	 -12317.44718776	    -35.35101177	     16.19453739	     77.03379822	    599.10278647	   -562.98664051	      0.00000000	      0.00000000	      0.00000000	    153.22350045
      3.15000000	      0.00000000	     -0.00000000	      0.00000000	      0.00000000	      0.00000000	      0.00000000	      0.00000000	      0.00000000	      0.00000000	      5.18945742	     34.53813553	   -339.34637451	   -340.90786462	  -1082.65266479	      0.00000000	      0.00000000	      0.00000000	   9416.49408576	    -11.22188854	    -43.66039559	   -398.90560913	   -350.93220158	   -625.81721886	      0.00000000	      0.00000000	     -0.00000000	 -12184.85262444	    -35.51501323	     16.26958395	     75.39649963	    603.35005805	   -562.05694198	      0.00000000	      0.00000000	     -0.00000000	   -124.63192041
      3.16000000	      0.00000000	     -0.00000000	      0.00000000	      0.00000000	      0.00000000	      0.00000000	      0.00000000	      0.00000000	      0.00000000	      3.67297888	     34.73191833	   -339.99533081	   -341.43588326	  -1081.64253256	      0.00000000	     -0.00000000	      0.00000000	   9298.31426766	    -11.36969852	    -43.57189461	   -401.46813965	   -351.49573951	   -625.59172349	      0.00000000	      0.00000000	     -0.00000000	 -12018.37517917	    -35.17195754	     15.84952090	     74.63375092	    609.81935414	   -564.81934605	      0.00000000	      0.00000000	      0.00000000	     64.79555279
      3.17000000	      0.00000000	     -0.00000000	      0.00000000	      0.00000000	      0.00000000	      0.00000000	      0.00000000	      0.00000000	      0.00000000	      2.51261282	     34.03310776	   -341.23010254	   -342.37332691	  -1081.48508652	      0.00000000	      0.00000000	      0.00000000	   9364.14737368	    -11.72448823	    -43.29296773	   -402.74493408	   -353.66667823	   -626.71947450	      0.00000000	      0.00000000	     -0.00000000	 -12106.73147916	    -35.54557280	     15.92350603	     75.63237762	    604.00235491	   -563.24251695	      0.00000000	     -0.00000000	     -0.00000000	     76.82912116
      3.18000000	      0.00000000	     -0.00000000	      0.00000000	      0.00000000	      0.00000000	      0.00000000	      0.00000000	      0.00000000	      0.00000000	      2.21562004	     33.39464569	   -343.69668579	   -342.39785698	  -1080.25825907	      0.00000000	     -0.00000000	      0.00000000	   9479.25837192	    -12.59573452	    -42.77673611	   -405.18807983	   -354.94322129	   -627.92411973	      0.00000000	      0.00000000	     -0.00000000	 -12182.78677931	    -35.32144785	     16.31396984	     75.80566406	    600.68808029	   -563.11152343	      0.00000000	     -0.00000000	     -0.00000000	     10.37887746
